# xmcd CD database file
#
# Track frame offsets:
#	150
#	61419
#	140061
#	191504
#	243353
#
# Disc length: 3824 seconds
#
# Revision: 0
# Processed by: cddbd v1.5.2PL0 Copyright (c) Steve Scherf et al.
# Submitted via: CDex 1.51
#
DISCID=450eee05
DTITLE=Charles Suniga - The Musical Sea
DYEAR=2005
DGENRE=New Age
TTITLE0=The Adobe
TTITLE1=Heceta Head
TTITLE2=Cape Perpetua
TTITLE3=Yachats
TTITLE4=Gem of the Oregon Coast
EXTD=YEAR: 2005
EXTT0=
EXTT1=
EXTT2=
EXTT3=
EXTT4=
PLAYORDER=
